<svg width="142" height="142" viewBox="0 0 142 142" fill="none" xmlns="http://www.w3.org/2000/svg">
<path fill-rule="evenodd" clip-rule="evenodd" d="M137 71C137 107.451 107.451 137 71 137C34.5492 137 5 107.451 5 71C5 34.5492 34.5492 5 71 5C107.451 5 137 34.5492 137 71ZM142 71C142 110.212 110.212 142 71 142C31.7878 142 0 110.212 0 71C0 31.7878 31.7878 0 71 0C110.212 0 142 31.7878 142 71ZM103 43.25V89H97V47.2255L40 104.226L35.7573 99.9829L92.4902 43.25H52V37.25H103V38V43.25Z" fill="white"/>
</svg>
