<svg width="233" height="21" viewBox="0 0 233 21" fill="none" xmlns="http://www.w3.org/2000/svg">
<path d="M9.79 9.62H12.1L11.792 11.622H9.482C9.37933 12.326 9.262 13.0667 9.13 13.844C9.01267 14.6067 8.91 15.3253 8.822 16H6.512L7.194 11.622H5.06C4.94267 12.326 4.82533 13.0667 4.708 13.844C4.59067 14.6067 4.48067 15.3253 4.378 16H2.09L2.772 11.622H0.418L0.704 9.62H3.058C3.102 9.224 3.15333 8.86467 3.212 8.542C3.28533 8.21933 3.35133 7.84533 3.41 7.42H1.056L1.364 5.418H3.696L4.334 1.326H6.644L6.028 5.418H8.118L8.756 1.326H11.044L10.45 5.418H12.716L12.43 7.42H10.142L9.79 9.62ZM7.458 9.62C7.51667 9.224 7.57533 8.86467 7.634 8.542C7.70733 8.21933 7.77333 7.84533 7.832 7.42H5.72C5.676 7.83067 5.61733 8.19733 5.544 8.52C5.48533 8.828 5.42667 9.19467 5.368 9.62H7.458ZM34.7734 3.064V3.042L37.6994 12.612L40.9114 2.338C41.1461 1.60467 41.5787 1.238 42.2094 1.238H42.3194C42.4661 1.238 42.6714 1.26 42.9354 1.304C43.2287 1.37733 43.4047 1.414 43.4634 1.414C43.5807 1.42867 43.7127 1.44333 43.8594 1.458C44.0061 1.458 44.1674 1.458 44.3434 1.458C44.7394 1.458 45.0474 1.436 45.2674 1.392L45.9054 1.282C45.9641 1.25267 46.1034 1.238 46.3234 1.238C47.2181 1.238 47.6654 1.58267 47.6654 2.272C47.6654 2.91733 47.3207 3.24 46.6314 3.24C46.5434 3.24 46.4481 3.24 46.3454 3.24C46.2574 3.22533 46.1694 3.21067 46.0814 3.196C45.9934 3.18133 45.8834 3.174 45.7514 3.174C45.6341 3.15933 45.5827 3.14467 45.5974 3.13C45.1427 3.14467 44.9154 3.57733 44.9154 4.428V5.902L44.8934 7.772V9.554L44.9154 12.898C44.9154 13.7487 45.1501 14.174 45.6194 14.174C45.6781 14.174 45.7294 14.174 45.7734 14.174C45.8321 14.1593 45.8907 14.152 45.9494 14.152C46.1107 14.1227 46.2281 14.108 46.3014 14.108C46.3747 14.108 46.4261 14.108 46.4554 14.108C46.4994 14.108 46.5361 14.108 46.5654 14.108C46.5947 14.0933 46.6167 14.086 46.6314 14.086C47.3207 14.086 47.6654 14.4087 47.6654 15.054C47.6654 15.3913 47.5481 15.67 47.3134 15.89C47.0787 16.11 46.7707 16.1833 46.3894 16.11C46.0961 16.0807 45.8761 16.066 45.7294 16.066C45.5827 16.0807 45.4067 16.066 45.2014 16.022C44.8494 15.9927 44.5561 15.9633 44.3214 15.934C44.0867 15.9047 43.8447 15.89 43.5954 15.89C43.2874 15.89 42.9794 15.9047 42.6714 15.934C42.3781 15.9487 42.0774 15.9853 41.7694 16.044C41.5054 16.088 41.2561 16.11 41.0214 16.11C40.2294 16.11 39.8334 15.78 39.8334 15.12C39.8334 14.4453 40.2367 14.108 41.0434 14.108C41.1314 14.108 41.1974 14.108 41.2414 14.108C41.3001 14.0933 41.3587 14.1007 41.4174 14.13C41.4907 14.1447 41.5567 14.152 41.6154 14.152C41.6741 14.152 41.7181 14.152 41.7474 14.152H41.9234C42.2167 14.152 42.4074 13.7193 42.4954 12.854C42.5101 12.7073 42.5174 12.4507 42.5174 12.084C42.5321 11.7173 42.5394 11.2627 42.5394 10.72C42.5394 10.4853 42.5394 10.1993 42.5394 9.862C42.5394 9.52467 42.5467 9.136 42.5614 8.696C42.5614 8.432 42.5687 8.11667 42.5834 7.75C42.5981 7.36867 42.6054 7.046 42.6054 6.782V4.604L39.1954 15.208C39.0781 15.516 38.8874 15.7653 38.6234 15.956C38.3741 16.132 38.0587 16.22 37.6774 16.22C37.2081 16.22 36.8561 16.1467 36.6214 16C36.4014 15.8533 36.2327 15.5893 36.1154 15.208C35.5581 13.492 34.9934 11.7467 34.4214 9.972C33.8641 8.19733 33.3141 6.43733 32.7714 4.692L32.8814 12.876C32.8961 13.712 33.0574 14.13 33.3654 14.13C33.4827 14.13 33.6661 14.1007 33.9154 14.042H34.2454C35.0374 14.042 35.4334 14.3867 35.4334 15.076C35.4334 15.7653 35.0301 16.11 34.2234 16.11C34.1647 16.11 34.1061 16.11 34.0474 16.11C33.9887 16.11 33.9227 16.1027 33.8494 16.088H33.8714C33.8421 16.0733 33.7981 16.066 33.7394 16.066L32.7274 15.912C32.4341 15.868 32.0967 15.846 31.7154 15.846C30.9674 15.846 30.4834 15.868 30.2634 15.912L29.3614 16.088C29.3174 16.088 29.2807 16.0953 29.2514 16.11H29.0754C28.1807 16.11 27.7334 15.7653 27.7334 15.076C27.7334 14.7827 27.8361 14.548 28.0414 14.372C28.2467 14.1813 28.4814 14.086 28.7454 14.086C28.8481 14.086 28.9654 14.0933 29.0974 14.108C29.2294 14.1227 29.3467 14.1373 29.4494 14.152C29.5081 14.1667 29.5814 14.174 29.6694 14.174C29.7134 14.174 29.7501 14.1813 29.7794 14.196C30.2487 14.196 30.4834 13.7707 30.4834 12.92V4.428C30.4834 3.60667 30.2561 3.174 29.8014 3.13C29.8014 3.14467 29.7354 3.15933 29.6034 3.174C29.4714 3.174 29.3687 3.18133 29.2954 3.196C29.2074 3.21067 29.1121 3.22533 29.0094 3.24C28.9067 3.24 28.8187 3.24 28.7454 3.24C28.0707 3.24 27.7334 2.91733 27.7334 2.272C27.7334 1.58267 28.1734 1.238 29.0534 1.238C29.0827 1.238 29.1267 1.238 29.1854 1.238C29.2587 1.238 29.3247 1.24533 29.3834 1.26L30.1094 1.348C30.4614 1.392 30.7914 1.414 31.0994 1.414C31.2314 1.414 31.3781 1.40667 31.5394 1.392C31.7154 1.37733 31.9134 1.35533 32.1334 1.326C32.3681 1.29667 32.5734 1.27467 32.7494 1.26C32.9254 1.24533 33.0721 1.238 33.1894 1.238C33.9227 1.238 34.3994 1.656 34.6194 2.492L34.7734 3.064ZM59.3753 13.272C59.7419 12.26 60.1159 11.2627 60.4973 10.28C60.8786 9.29733 61.2453 8.3 61.5973 7.288V7.31C61.6413 7.16333 61.6633 7.03867 61.6633 6.936C61.6633 6.892 61.6266 6.87 61.5533 6.87C61.4506 6.87 61.3406 6.88467 61.2233 6.914C61.1646 6.914 61.0986 6.92133 61.0253 6.936C60.9666 6.936 60.9226 6.936 60.8933 6.936C60.8639 6.936 60.8346 6.94333 60.8053 6.958C60.7759 6.958 60.7466 6.958 60.7173 6.958C60.0279 6.958 59.6833 6.63533 59.6833 5.99C59.6833 5.33 60.0939 5 60.9153 5C60.9446 5 60.9959 5 61.0693 5C61.1426 5 61.2086 5.00733 61.2673 5.022C61.2819 5.022 61.2893 5.02933 61.2893 5.044C61.3039 5.044 61.3259 5.044 61.3553 5.044L62.1033 5.154C62.2059 5.16867 62.3013 5.176 62.3893 5.176C62.4919 5.176 62.6019 5.176 62.7193 5.176C62.8219 5.176 62.9539 5.176 63.1153 5.176C63.2766 5.16133 63.4746 5.13933 63.7093 5.11C63.9439 5.08067 64.1493 5.05867 64.3253 5.044C64.5159 5.02933 64.6773 5.022 64.8093 5.022C65.6306 5.022 66.0413 5.34467 66.0413 5.99C66.0413 6.63533 65.6966 6.958 65.0073 6.958C64.8019 6.958 64.6699 6.94333 64.6113 6.914C64.5673 6.89933 64.5233 6.892 64.4793 6.892C64.4499 6.892 64.4206 6.88467 64.3913 6.87C64.3619 6.87 64.3399 6.86267 64.3253 6.848C64.2226 6.848 64.0613 7.14133 63.8413 7.728L61.0033 14.812C60.4019 16.352 59.7933 17.518 59.1773 18.31C58.1799 19.586 56.9113 20.224 55.3713 20.224C54.4179 20.224 53.6333 19.9893 53.0173 19.52C52.3426 19.0213 52.0053 18.4273 52.0053 17.738C52.0053 17.2247 52.1666 16.7993 52.4893 16.462C52.7973 16.1393 53.2079 15.978 53.7213 15.978C54.1466 15.978 54.4913 16.0953 54.7553 16.33C55.0339 16.5793 55.1733 16.8873 55.1733 17.254C55.1733 17.6647 55.0339 17.9653 54.7553 18.156C54.8433 18.2147 54.9313 18.244 55.0193 18.244C55.1219 18.2587 55.2466 18.266 55.3933 18.266C56.0386 18.266 56.6179 18.0167 57.1313 17.518C57.6593 17.034 57.9233 16.4913 57.9233 15.89C57.9233 15.582 57.7399 14.9733 57.3733 14.064L55.0853 8.278C55.0706 8.21933 55.0486 8.16067 55.0193 8.102C54.9899 8.04333 54.9606 7.97733 54.9313 7.904C54.9019 7.816 54.8726 7.71333 54.8433 7.596C54.6379 7.09733 54.4766 6.848 54.3593 6.848C54.3299 6.848 54.2859 6.85533 54.2273 6.87C54.1833 6.87 54.1246 6.87733 54.0513 6.892C53.9339 6.90667 53.7946 6.92867 53.6333 6.958C53.4866 6.97267 53.4279 6.98 53.4573 6.98C52.7533 6.98 52.4013 6.65733 52.4013 6.012C52.4013 5.352 52.8413 5.022 53.7213 5.022C53.8239 5.022 53.9266 5.022 54.0293 5.022C54.1319 5.022 54.2053 5.02933 54.2493 5.044C54.3813 5.05867 54.5059 5.08067 54.6233 5.11C54.7553 5.12467 54.8873 5.13933 55.0193 5.154H55.2613C55.3346 5.16867 55.3933 5.176 55.4373 5.176C55.6866 5.176 55.9359 5.16867 56.1853 5.154C56.4493 5.13933 56.7206 5.11733 56.9993 5.088C57.4393 5.044 57.7399 5.022 57.9013 5.022C58.7226 5.022 59.1333 5.34467 59.1333 5.99C59.1333 6.65 58.7519 6.98 57.9893 6.98C57.9306 6.98 57.8573 6.98 57.7693 6.98C57.6959 6.96533 57.6226 6.95067 57.5493 6.936C57.5053 6.936 57.4539 6.936 57.3953 6.936C57.3513 6.92133 57.3073 6.914 57.2633 6.914C57.2633 7.002 57.2853 7.09 57.3293 7.178L59.3753 13.272ZM86.8661 0.863999C88.0835 0.863999 89.1028 1.172 89.9241 1.788C90.0415 1.304 90.3641 1.062 90.8921 1.062C91.6108 1.062 91.9701 1.46533 91.9701 2.272V2.404C91.9701 2.41867 91.9628 2.44067 91.9481 2.47C91.9481 2.49933 91.9481 2.52867 91.9481 2.558C91.9188 2.71933 91.8895 2.96867 91.8601 3.306C91.8455 3.64333 91.8381 4.02467 91.8381 4.45C91.8381 4.46467 91.8381 4.494 91.8381 4.538C91.8528 4.56733 91.8601 4.61133 91.8601 4.67C91.8601 4.714 91.8601 4.77267 91.8601 4.846C91.8601 4.91933 91.8675 5.00733 91.8821 5.11L91.9481 5.924C91.9775 5.99733 91.9848 6.056 91.9701 6.1C91.9701 6.12933 91.9701 6.18067 91.9701 6.254C91.9701 7.134 91.5888 7.574 90.8261 7.574C90.0488 7.574 89.6601 7.19267 89.6601 6.43V6.32L89.7041 5.726C89.7188 5.62333 89.7261 5.53533 89.7261 5.462C89.7261 5.38867 89.7261 5.33 89.7261 5.286C89.7261 4.538 89.4695 3.95133 88.9561 3.526C88.4575 3.10067 87.7608 2.888 86.8661 2.888C86.0448 2.888 85.3995 3.086 84.9301 3.482C84.4608 3.878 84.2261 4.41333 84.2261 5.088C84.2261 5.86533 84.5635 6.43 85.2381 6.782C85.4435 6.89933 85.7368 7.002 86.1181 7.09C86.5141 7.178 86.9761 7.266 87.5041 7.354C88.2961 7.50067 89.0148 7.66933 89.6601 7.86C90.3055 8.05067 90.7821 8.27067 91.0901 8.52C91.5888 8.916 91.9701 9.378 92.2341 9.906C92.4981 10.434 92.6301 11.028 92.6301 11.688C92.6301 13.096 92.1095 14.2547 91.0681 15.164C90.0415 16.0293 88.7361 16.462 87.1521 16.462C85.7735 16.462 84.5855 16.1173 83.5881 15.428C83.5881 16.132 83.2215 16.484 82.4881 16.484C81.7108 16.484 81.3221 16.088 81.3221 15.296C81.3221 15.2373 81.3295 15.1787 81.3441 15.12L81.4321 14.02C81.4761 13.4773 81.4981 13.1327 81.4981 12.986C81.4981 12.8687 81.4835 12.7073 81.4541 12.502C81.4395 12.2967 81.4175 12.0473 81.3881 11.754C81.3588 11.4607 81.3368 11.2113 81.3221 11.006C81.3075 10.8007 81.3001 10.6173 81.3001 10.456C81.3001 9.62 81.6815 9.202 82.4441 9.202C83.2361 9.202 83.6321 9.62 83.6321 10.456V10.896C83.6175 10.94 83.6101 10.9987 83.6101 11.072C83.6101 11.1453 83.6101 11.226 83.6101 11.314C83.6101 12.282 83.9108 13.052 84.5121 13.624C85.1281 14.1813 85.9641 14.46 87.0201 14.46C87.9881 14.46 88.7508 14.24 89.3081 13.8C89.8801 13.3453 90.1661 12.722 90.1661 11.93C90.1661 11.3727 89.9681 10.9107 89.5721 10.544C89.1761 10.1773 88.6261 9.92067 87.9221 9.774L86.7121 9.554C86.0961 9.45133 85.5461 9.334 85.0621 9.202C84.5928 9.07 84.1895 8.938 83.8521 8.806C83.1775 8.51267 82.6421 8.058 82.2461 7.442C81.8501 6.81133 81.6521 6.10733 81.6521 5.33C81.6521 4.01 82.1435 2.92467 83.1261 2.074C84.0648 1.26733 85.3115 0.863999 86.8661 0.863999ZM109.045 9.576C109.045 9.91333 109.038 10.1773 109.023 10.368C109.009 10.5587 108.965 10.7053 108.891 10.808C108.818 10.9107 108.708 10.9767 108.561 11.006C108.429 11.0207 108.239 11.028 107.989 11.028H101.367C101.309 11.028 101.279 11.0353 101.279 11.05C101.279 12.0327 101.565 12.832 102.137 13.448C102.68 14.0787 103.362 14.394 104.183 14.394C104.726 14.394 105.217 14.2473 105.657 13.954C106.097 13.6607 106.383 13.2867 106.515 12.832L106.713 12.238C106.801 12.018 106.926 11.842 107.087 11.71C107.263 11.578 107.476 11.512 107.725 11.512C108.488 11.512 108.869 11.8787 108.869 12.612C108.869 13.6093 108.356 14.4893 107.329 15.252C106.347 15.9853 105.239 16.352 104.007 16.352C102.423 16.352 101.169 15.8313 100.245 14.79C99.3359 13.7487 98.8812 12.37 98.8812 10.654C98.8812 8.92333 99.3652 7.486 100.333 6.342C101.316 5.21267 102.599 4.648 104.183 4.648C104.917 4.648 105.569 4.76533 106.141 5C106.713 5.23467 107.227 5.57933 107.681 6.034C108.591 6.98733 109.045 8.168 109.045 9.576ZM106.647 9.048C106.647 8.388 106.405 7.816 105.921 7.332C105.408 6.848 104.836 6.606 104.205 6.606C103.56 6.606 102.929 6.87 102.313 7.398C101.756 7.91133 101.477 8.46133 101.477 9.048H106.647ZM118.82 13.47C118.835 13.9833 118.901 14.24 119.018 14.24C119.048 14.24 119.084 14.2327 119.128 14.218C119.158 14.218 119.187 14.218 119.216 14.218C119.26 14.2033 119.312 14.1887 119.37 14.174C119.4 14.174 119.429 14.174 119.458 14.174C119.488 14.1593 119.517 14.152 119.546 14.152C119.576 14.152 119.59 14.152 119.59 14.152C119.59 14.1373 119.605 14.13 119.634 14.13C119.664 14.1153 119.7 14.108 119.744 14.108C119.803 14.108 119.847 14.108 119.876 14.108C120.566 14.108 120.91 14.438 120.91 15.098C120.91 15.758 120.507 16.088 119.7 16.088C119.583 16.088 119.429 16.0807 119.238 16.066C119.062 16.0513 118.85 16.0293 118.6 16C118.366 15.9707 118.153 15.9487 117.962 15.934C117.786 15.9193 117.64 15.912 117.522 15.912C117.42 15.912 117.288 15.9193 117.126 15.934C116.965 15.9487 116.774 15.9707 116.554 16C116.349 16.0293 116.158 16.0513 115.982 16.066C115.806 16.0807 115.66 16.088 115.542 16.088H115.432C114.611 16.088 114.2 15.736 114.2 15.032C114.2 14.416 114.56 14.108 115.278 14.108H115.498C115.557 14.1227 115.616 14.13 115.674 14.13C115.85 14.1593 115.975 14.1813 116.048 14.196C116.122 14.2107 116.173 14.218 116.202 14.218C116.261 14.218 116.305 14.1813 116.334 14.108C116.364 14.0053 116.386 13.822 116.4 13.558C116.415 13.294 116.43 12.942 116.444 12.502C116.444 12.2527 116.444 12.0107 116.444 11.776C116.459 11.5267 116.466 11.2847 116.466 11.05L116.532 7.816C116.532 7.58133 116.532 7.30267 116.532 6.98C116.532 6.65733 116.525 6.32 116.51 5.968C116.51 5.616 116.51 5.27867 116.51 4.956C116.51 4.63333 116.51 4.35467 116.51 4.12L116.444 3.284C116.415 3.24 116.378 3.196 116.334 3.152C116.29 3.108 116.246 3.086 116.202 3.086C116.188 3.086 116.012 3.11533 115.674 3.174C115.601 3.18867 115.535 3.196 115.476 3.196C115.432 3.196 115.374 3.196 115.3 3.196C114.582 3.196 114.222 2.88067 114.222 2.25C114.222 1.59 114.618 1.26 115.41 1.26C115.484 1.26 115.564 1.26 115.652 1.26C115.755 1.26 115.828 1.26733 115.872 1.282L116.312 1.348C116.342 1.348 116.371 1.35533 116.4 1.37C116.43 1.37 116.459 1.37 116.488 1.37C116.562 1.38467 116.628 1.392 116.686 1.392C116.76 1.392 116.826 1.392 116.884 1.392C116.914 1.392 116.98 1.392 117.082 1.392C117.2 1.37733 117.317 1.35533 117.434 1.326C117.566 1.29667 117.684 1.27467 117.786 1.26C117.904 1.24533 118.021 1.238 118.138 1.238C118.681 1.238 118.952 1.53867 118.952 2.14C118.952 2.228 118.952 2.294 118.952 2.338C118.967 2.382 118.96 2.43333 118.93 2.492C118.842 3.57733 118.798 5.08067 118.798 7.002L118.82 13.47ZM131.197 14.108C131.579 14.108 131.857 14.218 132.033 14.438C132.209 14.218 132.488 14.108 132.869 14.108C132.928 14.108 132.987 14.1153 133.045 14.13C133.104 14.13 133.17 14.1373 133.243 14.152C133.331 14.1813 133.419 14.2033 133.507 14.218C133.61 14.218 133.683 14.218 133.727 14.218C133.845 14.218 133.925 13.9833 133.969 13.514C133.984 13.47 133.991 13.0447 133.991 12.238V9.4C133.991 8.13867 133.94 7.42733 133.837 7.266C133.779 7.14867 133.383 7.09 132.649 7.09H130.581C130.464 7.09 130.376 7.09733 130.317 7.112C130.273 7.12667 130.244 7.134 130.229 7.134V11.6C130.229 11.732 130.229 11.8787 130.229 12.04C130.229 12.1867 130.237 12.348 130.251 12.524C130.266 12.6413 130.273 12.766 130.273 12.898C130.273 13.0153 130.273 13.0887 130.273 13.118V13.932V13.976C130.288 14.1373 130.332 14.218 130.405 14.218C130.435 14.218 130.471 14.218 130.515 14.218C130.574 14.218 130.625 14.2107 130.669 14.196C130.757 14.1813 130.875 14.1667 131.021 14.152C131.168 14.1227 131.227 14.108 131.197 14.108ZM133.463 3.614C133.463 3.42333 133.493 3.26933 133.551 3.152C133.243 2.932 132.811 2.822 132.253 2.822C130.904 2.822 130.229 3.51867 130.229 4.912C130.229 5.05867 130.244 5.132 130.273 5.132H133.331C134.065 5.132 134.607 5.11 134.959 5.066H134.937C135.084 5.03667 135.238 5.022 135.399 5.022C136.03 5.022 136.345 5.374 136.345 6.078C136.345 6.15133 136.338 6.21 136.323 6.254C136.309 6.37133 136.301 6.496 136.301 6.628C136.301 6.74533 136.301 6.84067 136.301 6.914C136.301 6.94333 136.301 7.046 136.301 7.222C136.301 7.38333 136.294 7.618 136.279 7.926C136.279 8.058 136.272 8.24133 136.257 8.476C136.257 8.696 136.257 8.87933 136.257 9.026V12.392C136.257 13.2133 136.265 13.646 136.279 13.69C136.323 14.0567 136.404 14.24 136.521 14.24C136.551 14.24 136.609 14.24 136.697 14.24C136.785 14.2253 136.866 14.2033 136.939 14.174L136.917 14.196C137.108 14.1373 137.277 14.108 137.423 14.108C138.113 14.108 138.457 14.4307 138.457 15.076C138.457 15.7507 138.061 16.088 137.269 16.088C137.123 16.088 136.873 16.066 136.521 16.022C136.448 16.022 136.36 16.0147 136.257 16C136.169 15.9853 136.089 15.978 136.015 15.978C135.619 15.934 135.223 15.912 134.827 15.912C134.475 15.912 134.16 15.934 133.881 15.978C133.852 15.978 133.83 15.9853 133.815 16C133.801 16 133.786 16 133.771 16C133.551 16.0293 133.353 16.0513 133.177 16.066C133.016 16.0807 132.899 16.088 132.825 16.088C132.473 16.088 132.202 15.978 132.011 15.758C131.806 15.978 131.483 16.088 131.043 16.088L130.339 16C130.295 15.9853 130.222 15.978 130.119 15.978C129.826 15.934 129.481 15.912 129.085 15.912C128.865 15.912 128.66 15.9193 128.469 15.934C128.279 15.934 128.125 15.9413 128.007 15.956L127.061 16.088H126.819C126.042 16.088 125.653 15.758 125.653 15.098C125.653 14.394 126.035 14.042 126.797 14.042C126.827 14.042 126.871 14.042 126.929 14.042C126.988 14.042 127.039 14.0493 127.083 14.064C127.113 14.064 127.135 14.0713 127.149 14.086C127.179 14.086 127.208 14.086 127.237 14.086C127.355 14.1153 127.45 14.1447 127.523 14.174C127.597 14.1887 127.655 14.196 127.699 14.196C127.817 14.196 127.883 13.822 127.897 13.074C127.897 12.986 127.897 12.8247 127.897 12.59C127.897 12.3553 127.905 12.0473 127.919 11.666C127.919 11.5047 127.919 11.2553 127.919 10.918C127.919 10.5807 127.927 10.3313 127.941 10.17C127.956 9.95 127.963 9.78867 127.963 9.686C127.963 9.56867 127.963 9.49533 127.963 9.466V7.288C127.963 7.2 127.956 7.14867 127.941 7.134C127.941 7.10467 127.927 7.09 127.897 7.09H126.951C126.218 7.09 125.851 6.76 125.851 6.1C125.851 5.45467 126.218 5.132 126.951 5.132H127.853C127.971 5.132 128.029 5.10267 128.029 5.044C128.103 2.36 129.533 1.018 132.319 1.018C132.891 1.018 133.419 1.084 133.903 1.216C134.402 1.33333 134.827 1.502 135.179 1.722C135.531 1.942 135.803 2.206 135.993 2.514C136.199 2.822 136.301 3.15933 136.301 3.526C136.301 4.42067 135.832 4.868 134.893 4.868C134.483 4.868 134.138 4.758 133.859 4.538C133.595 4.30333 133.463 3.99533 133.463 3.614ZM153.849 9.576C153.849 9.91333 153.841 10.1773 153.827 10.368C153.812 10.5587 153.768 10.7053 153.695 10.808C153.621 10.9107 153.511 10.9767 153.365 11.006C153.233 11.0207 153.042 11.028 152.793 11.028H146.171C146.112 11.028 146.083 11.0353 146.083 11.05C146.083 12.0327 146.369 12.832 146.941 13.448C147.483 14.0787 148.165 14.394 148.987 14.394C149.529 14.394 150.021 14.2473 150.461 13.954C150.901 13.6607 151.187 13.2867 151.319 12.832L151.517 12.238C151.605 12.018 151.729 11.842 151.891 11.71C152.067 11.578 152.279 11.512 152.529 11.512C153.291 11.512 153.673 11.8787 153.673 12.612C153.673 13.6093 153.159 14.4893 152.133 15.252C151.15 15.9853 150.043 16.352 148.811 16.352C147.227 16.352 145.973 15.8313 145.049 14.79C144.139 13.7487 143.685 12.37 143.685 10.654C143.685 8.92333 144.169 7.486 145.137 6.342C146.119 5.21267 147.403 4.648 148.987 4.648C149.72 4.648 150.373 4.76533 150.945 5C151.517 5.23467 152.03 5.57933 152.485 6.034C153.394 6.98733 153.849 8.168 153.849 9.576ZM151.451 9.048C151.451 8.388 151.209 7.816 150.725 7.332C150.211 6.848 149.639 6.606 149.009 6.606C148.363 6.606 147.733 6.87 147.117 7.398C146.559 7.91133 146.281 8.46133 146.281 9.048H151.451ZM170.752 8.212C170.649 8.27067 170.546 8.31467 170.444 8.344C170.356 8.37333 170.253 8.41 170.136 8.454C170.326 8.55667 170.495 8.66667 170.642 8.784C170.803 8.90133 170.935 9.04067 171.038 9.202C171.214 9.466 171.346 9.80333 171.434 10.214C171.536 10.61 171.588 11.094 171.588 11.666V12.656C171.573 12.7 171.566 12.7807 171.566 12.898C171.566 13.7193 171.771 14.13 172.182 14.13C172.607 14.13 172.82 13.6167 172.82 12.59V11.974L172.798 11.446V11.138C172.798 10.918 172.805 10.7273 172.82 10.566C172.834 10.4047 172.864 10.2727 172.908 10.17C173.054 9.818 173.384 9.642 173.898 9.642C174.646 9.642 175.02 10.038 175.02 10.83C175.02 10.8447 175.02 10.9033 175.02 11.006C175.02 11.094 175.012 11.1967 174.998 11.314C174.998 11.3873 174.99 11.468 174.976 11.556C174.976 11.6293 174.976 11.6953 174.976 11.754C174.961 11.9007 174.954 12.018 174.954 12.106C174.954 12.194 174.954 12.26 174.954 12.304V12.832C174.968 12.8907 174.976 12.9567 174.976 13.03C174.976 13.0887 174.976 13.1473 174.976 13.206C174.976 14.13 174.712 14.8487 174.184 15.362C173.67 15.8607 172.944 16.11 172.006 16.11C170.114 16.11 169.168 15.1713 169.168 13.294V12.656L169.19 11.952V11.49C169.19 10.6247 169.043 10.082 168.75 9.862C168.456 9.58333 167.796 9.444 166.77 9.444H164.812C164.606 9.444 164.504 9.62 164.504 9.972V11.6C164.504 12.1133 164.504 12.5167 164.504 12.81C164.518 13.0887 164.526 13.2647 164.526 13.338V13.316C164.643 13.8733 164.878 14.152 165.23 14.152C165.362 14.152 165.486 14.1373 165.604 14.108C165.838 14.064 166.044 14.042 166.22 14.042C166.909 14.042 167.254 14.3793 167.254 15.054C167.254 15.758 166.814 16.11 165.934 16.11C165.904 16.0953 165.875 16.088 165.846 16.088C165.758 16.088 165.684 16.0807 165.626 16.066L164.504 15.912C164.269 15.8827 164.064 15.8607 163.888 15.846C163.712 15.8313 163.543 15.824 163.382 15.824C163.294 15.824 163.162 15.8387 162.986 15.868C162.824 15.8973 162.648 15.9267 162.458 15.956C162.282 15.9853 162.098 16.0147 161.908 16.044C161.732 16.088 161.578 16.1173 161.446 16.132C161.284 16.132 161.152 16.1393 161.05 16.154C160.962 16.1687 160.8 16.154 160.566 16.11C159.715 16.11 159.29 15.758 159.29 15.054C159.29 14.4087 159.627 14.086 160.302 14.086C160.316 14.086 160.338 14.0933 160.368 14.108C160.397 14.108 160.441 14.108 160.5 14.108C160.544 14.108 160.602 14.1153 160.676 14.13C160.749 14.13 160.822 14.13 160.896 14.13C160.969 14.1447 161.042 14.1593 161.116 14.174C161.189 14.174 161.262 14.174 161.336 14.174C161.805 14.174 162.04 13.7487 162.04 12.898V4.428C162.04 3.60667 161.812 3.174 161.358 3.13C161.358 3.14467 161.292 3.15933 161.16 3.174C161.028 3.174 160.925 3.18133 160.852 3.196C160.764 3.21067 160.668 3.22533 160.566 3.24C160.463 3.24 160.375 3.24 160.302 3.24C160.038 3.24 159.803 3.14467 159.598 2.954C159.392 2.74867 159.29 2.52133 159.29 2.272C159.29 1.58267 159.722 1.238 160.588 1.238C160.617 1.238 160.661 1.238 160.72 1.238C160.793 1.238 160.859 1.24533 160.918 1.26C161.094 1.27467 161.27 1.29667 161.446 1.326C161.636 1.34067 161.812 1.35533 161.974 1.37C162.12 1.38467 162.274 1.39933 162.436 1.414C162.612 1.414 162.802 1.414 163.008 1.414C163.213 1.414 163.418 1.414 163.624 1.414C163.844 1.39933 164.078 1.38467 164.328 1.37H164.46L166.066 1.282C166.33 1.26733 166.586 1.26 166.836 1.26C167.1 1.24533 167.342 1.238 167.562 1.238C170.891 1.238 172.556 2.52133 172.556 5.088C172.556 6.59867 171.954 7.64 170.752 8.212ZM166.726 7.442C167.283 7.442 167.767 7.40533 168.178 7.332C168.603 7.25867 168.955 7.14133 169.234 6.98C169.82 6.65733 170.114 6.06333 170.114 5.198C170.114 3.79 169.131 3.086 167.166 3.086C166.051 3.086 165.31 3.16667 164.944 3.328C164.665 3.44533 164.526 3.70933 164.526 4.12C164.526 4.22267 164.518 4.33267 164.504 4.45C164.504 4.56733 164.504 4.67 164.504 4.758V7.2C164.504 7.31733 164.511 7.39067 164.526 7.42C164.555 7.43467 164.628 7.442 164.746 7.442H166.726ZM185.605 16.352C184.036 16.352 182.782 15.8167 181.843 14.746C180.905 13.6753 180.435 12.26 180.435 10.5C180.435 8.72533 180.905 7.31733 181.843 6.276C182.782 5.19067 184.058 4.648 185.671 4.648C187.285 4.648 188.568 5.176 189.521 6.232C190.445 7.27333 190.907 8.674 190.907 10.434C190.907 12.2233 190.431 13.646 189.477 14.702C188.524 15.802 187.233 16.352 185.605 16.352ZM185.715 6.606C184.835 6.606 184.146 6.92133 183.647 7.552C183.163 8.18267 182.899 9.08467 182.855 10.258V10.5C182.855 11.7173 183.097 12.6707 183.581 13.36C184.065 14.0493 184.747 14.394 185.627 14.394C186.522 14.394 187.226 14.0567 187.739 13.382C188.267 12.6927 188.531 11.7247 188.531 10.478C188.531 7.89667 187.593 6.606 185.715 6.606ZM202.015 16.352C200.446 16.352 199.192 15.8167 198.253 14.746C197.315 13.6753 196.845 12.26 196.845 10.5C196.845 8.72533 197.315 7.31733 198.253 6.276C199.192 5.19067 200.468 4.648 202.081 4.648C203.695 4.648 204.978 5.176 205.931 6.232C206.855 7.27333 207.317 8.674 207.317 10.434C207.317 12.2233 206.841 13.646 205.887 14.702C204.934 15.802 203.643 16.352 202.015 16.352ZM202.125 6.606C201.245 6.606 200.556 6.92133 200.057 7.552C199.573 8.18267 199.309 9.08467 199.265 10.258V10.5C199.265 11.7173 199.507 12.6707 199.991 13.36C200.475 14.0493 201.157 14.394 202.037 14.394C202.932 14.394 203.636 14.0567 204.149 13.382C204.677 12.6927 204.941 11.7247 204.941 10.478C204.941 7.89667 204.003 6.606 202.125 6.606ZM216.335 5.022C216.834 5.022 217.127 5.242 217.215 5.682C217.611 5.30067 218.014 5.03667 218.425 4.89C218.85 4.72867 219.364 4.648 219.965 4.648C220.654 4.648 221.241 4.75067 221.725 4.956C222.209 5.16133 222.627 5.49867 222.979 5.968C223.404 5.55733 223.881 5.23467 224.409 5C224.952 4.76533 225.575 4.648 226.279 4.648C227.115 4.648 227.878 4.824 228.567 5.176C229.315 5.60133 229.85 6.18067 230.173 6.914C230.276 7.16333 230.349 7.47867 230.393 7.86C230.437 8.24133 230.459 8.68133 230.459 9.18V11.204L230.437 12.766C230.437 13.0447 230.437 13.2647 230.437 13.426C230.437 13.5873 230.444 13.7047 230.459 13.778C230.503 14.1007 230.562 14.262 230.635 14.262C230.708 14.262 230.818 14.2473 230.965 14.218C231.068 14.218 231.192 14.2107 231.339 14.196C231.5 14.1813 231.566 14.1667 231.537 14.152C232.241 14.1813 232.593 14.482 232.593 15.054C232.593 15.7433 232.204 16.088 231.427 16.088C231.31 16.088 231.163 16.0807 230.987 16.066C230.826 16.0513 230.635 16.0293 230.415 16C229.99 15.956 229.682 15.934 229.491 15.934C229.388 15.934 229.249 15.9413 229.073 15.956C228.897 15.956 228.706 15.9707 228.501 16C228.296 16.0293 228.098 16.0513 227.907 16.066C227.716 16.0807 227.562 16.088 227.445 16.088C226.624 16.088 226.213 15.7433 226.213 15.054C226.213 14.4527 226.55 14.152 227.225 14.152C227.254 14.152 227.276 14.1593 227.291 14.174C227.32 14.174 227.357 14.174 227.401 14.174C227.43 14.174 227.474 14.1813 227.533 14.196C227.606 14.196 227.672 14.196 227.731 14.196C227.79 14.2107 227.87 14.218 227.973 14.218C228.032 14.218 228.068 14.174 228.083 14.086C228.142 13.8513 228.178 13.2867 228.193 12.392C228.193 12.1867 228.193 11.974 228.193 11.754C228.208 11.534 228.215 11.3213 228.215 11.116V9.752C228.215 8.84267 228.149 8.19 228.017 7.794C227.9 7.38333 227.672 7.07533 227.335 6.87C226.998 6.65 226.602 6.54 226.147 6.54C225.326 6.54 224.739 6.83333 224.387 7.42C224.108 7.91867 223.969 8.81333 223.969 10.104V11.578C223.969 12.194 223.976 12.7073 223.991 13.118C224.006 13.514 224.028 13.8 224.057 13.976C224.086 14.1373 224.138 14.218 224.211 14.218C224.226 14.218 224.262 14.218 224.321 14.218C224.38 14.218 224.446 14.2107 224.519 14.196C224.592 14.1813 224.68 14.1667 224.783 14.152C224.9 14.1373 224.952 14.13 224.937 14.13C225.23 14.13 225.472 14.2253 225.663 14.416C225.868 14.592 225.971 14.8193 225.971 15.098C225.971 15.758 225.531 16.088 224.651 16.088C224.519 16.088 224.365 16.0807 224.189 16.066C224.028 16.0513 223.844 16.0293 223.639 16C223.434 15.9707 223.258 15.9487 223.111 15.934C222.979 15.9193 222.869 15.912 222.781 15.912C222.664 15.912 222.517 15.9193 222.341 15.934C222.18 15.9487 222.018 15.9707 221.857 16C221.696 16.0293 221.534 16.0513 221.373 16.066C221.212 16.0807 221.058 16.088 220.911 16.088C220.104 16.088 219.701 15.7507 219.701 15.076C219.701 14.46 220.031 14.152 220.691 14.152C220.867 14.152 221.014 14.1667 221.131 14.196C221.219 14.2107 221.292 14.2253 221.351 14.24C221.41 14.24 221.454 14.24 221.483 14.24C221.571 14.24 221.622 13.9833 221.637 13.47C221.637 13.3087 221.637 13.1473 221.637 12.986C221.652 12.8247 221.659 12.6633 221.659 12.502C221.674 12.3407 221.681 12.1867 221.681 12.04C221.681 11.8787 221.681 11.7247 221.681 11.578C221.696 11.4607 221.703 11.3727 221.703 11.314C221.703 11.2553 221.703 11.2187 221.703 11.204V9.488C221.703 8.93067 221.666 8.46867 221.593 8.102C221.534 7.72067 221.432 7.41267 221.285 7.178C221.138 6.94333 220.948 6.782 220.713 6.694C220.478 6.59133 220.185 6.54 219.833 6.54C219.026 6.54 218.425 6.83333 218.029 7.42C217.662 7.88933 217.479 8.77667 217.479 10.082V12.854C217.479 13.4113 217.486 13.7267 217.501 13.8C217.545 14.0933 217.582 14.24 217.611 14.24C217.596 14.24 217.714 14.218 217.963 14.174C218.022 14.174 218.073 14.1667 218.117 14.152H218.315C219.092 14.152 219.481 14.4747 219.481 15.12C219.481 15.7653 219.048 16.088 218.183 16.088C217.934 16.088 217.626 16.066 217.259 16.022C217.024 15.9927 216.812 15.9707 216.621 15.956C216.43 15.9413 216.254 15.934 216.093 15.934C215.932 15.934 215.646 15.956 215.235 16C214.927 16.0293 214.678 16.0513 214.487 16.066C214.311 16.0807 214.186 16.088 214.113 16.088C213.321 16.088 212.925 15.7507 212.925 15.076C212.925 14.46 213.306 14.152 214.069 14.152H214.223C214.267 14.1667 214.311 14.174 214.355 14.174L214.971 14.284C215.088 14.2107 215.154 13.9687 215.169 13.558C215.169 13.3527 215.176 13.1547 215.191 12.964C215.206 12.7733 215.213 12.5753 215.213 12.37V9.18C215.213 8.608 215.198 8.146 215.169 7.794C215.154 7.442 215.132 7.19267 215.103 7.046C215.088 6.89933 215.037 6.826 214.949 6.826C214.949 6.826 214.876 6.848 214.729 6.892L214.377 6.936C214.348 6.936 214.326 6.94333 214.311 6.958C214.311 6.958 214.304 6.958 214.289 6.958H214.355C214.311 6.97267 214.26 6.98 214.201 6.98C214.142 6.98 214.091 6.98 214.047 6.98C213.299 6.98 212.925 6.65733 212.925 6.012C212.925 5.352 213.321 5.022 214.113 5.022C214.201 5.022 214.296 5.02933 214.399 5.044C214.502 5.044 214.612 5.05133 214.729 5.066C214.846 5.08067 214.971 5.09533 215.103 5.11C215.235 5.11 215.345 5.11 215.433 5.11C215.477 5.11 215.528 5.10267 215.587 5.088H215.807L216.335 5.022Z" fill="#353535"/>
</svg>
